<svg width="96" height="91" viewBox="0 0 96 91" fill="none" xmlns="http://www.w3.org/2000/svg">
<g clip-path="url(#clip0_9_5)">
<path fill-rule="evenodd" clip-rule="evenodd" d="M8 45.5C8 24.5592 25.9086 7.58333 48 7.58333C70.0912 7.58333 88 24.5592 88 45.5C88 55.3754 84.0172 64.3688 77.4916 71.1161C74.5024 67.6934 70.8652 64.8083 66.7508 62.6175C61.0248 59.5686 54.5676 57.967 48 57.967C41.4324 57.967 34.9754 59.5686 29.2494 62.6175C25.1352 64.8083 21.4979 67.6934 18.5087 71.1161C11.9827 64.3688 8 55.3754 8 45.5ZM14.8897 78.442C15.1636 79.3065 15.7621 80.0815 16.639 80.5881C17.101 80.8546 17.5974 81.0222 18.1006 81.0969C26.3027 87.2952 36.6949 91 48 91C59.3052 91 69.6972 87.2952 77.8992 81.0969C78.4028 81.0222 78.8992 80.855 79.3612 80.5881C80.2384 80.0815 80.8368 79.3061 81.1108 78.442C90.2836 70.1546 96 58.4603 96 45.5C96 20.371 74.5096 0 48 0C21.4903 0 0 20.371 0 45.5C0 58.4603 5.71644 70.1549 14.8897 78.442ZM71.52 76.1727C64.9188 80.7288 56.7904 83.4167 48 83.4167C39.2095 83.4167 31.0813 80.7288 24.4802 76.1727C26.8802 73.3684 29.8249 71.0092 33.1674 69.229C37.697 66.8171 42.8048 65.5503 48 65.5503C53.1952 65.5503 58.3032 66.8171 62.8328 69.229C66.1752 71.0092 69.12 73.3684 71.52 76.1727ZM48 23.2916C40.7416 23.2916 34.8573 28.8694 34.8573 35.7499C34.8573 42.6305 40.7416 48.2084 48 48.2084C55.2588 48.2084 61.1428 42.6305 61.1428 35.7499C61.1428 28.8694 55.2588 23.2916 48 23.2916ZM26.8573 35.7499C26.8573 24.6812 36.3233 15.7082 48 15.7082C59.6772 15.7082 69.1428 24.6812 69.1428 35.7499C69.1428 46.8187 59.6772 55.7917 48 55.7917C36.3233 55.7917 26.8573 46.8187 26.8573 35.7499Z" fill="#3256E3"/>
</g>
<defs>
<clipPath id="clip0_9_5">
<rect width="96" height="91" fill="white"/>
</clipPath>
</defs>
</svg>
